<mxfile>
    <diagram id="NIIpk6YsIHQUV6-CvRbg" name="Page-1">
        <mxGraphModel dx="1121" dy="710" grid="1" gridSize="10" guides="1" tooltips="1" connect="1" arrows="1" fold="1" page="1" pageScale="1" pageWidth="850" pageHeight="1100" math="0" shadow="0">
            <root>
                <mxCell id="0"/>
                <mxCell id="1" parent="0"/>
                <mxCell id="8" value="Como deseja o output do programa ?" style="rounded=0;whiteSpace=wrap;html=1;fillColor=#cce5ff;strokeColor=#36393d;fontColor=#080808;" parent="1" vertex="1">
                    <mxGeometry x="60" y="210" width="120" height="60" as="geometry"/>
                </mxCell>
                <mxCell id="9" value="CSV" style="rounded=0;whiteSpace=wrap;html=1;" parent="1" vertex="1">
                    <mxGeometry x="60" y="280" width="120" height="60" as="geometry"/>
                </mxCell>
                <mxCell id="10" value="Terminal" style="rounded=0;whiteSpace=wrap;html=1;" parent="1" vertex="1">
                    <mxGeometry x="60" y="350" width="120" height="60" as="geometry"/>
                </mxCell>
                <mxCell id="13" value="1 Input" style="text;html=1;strokeColor=none;fillColor=none;align=center;verticalAlign=middle;whiteSpace=wrap;rounded=0;" parent="1" vertex="1">
                    <mxGeometry x="100" y="180" width="40" height="20" as="geometry"/>
                </mxCell>
                <mxCell id="14" value="Coloque os dados que deseja utilizar no cÃ¡lculo&lt;br&gt;Atualmente 0 dados" style="rounded=0;whiteSpace=wrap;html=1;fillColor=#cce5ff;strokeColor=#36393d;fontColor=#000000;" parent="1" vertex="1">
                    <mxGeometry x="440" y="210" width="120" height="60" as="geometry"/>
                </mxCell>
                <mxCell id="31" style="edgeStyle=orthogonalEdgeStyle;rounded=0;orthogonalLoop=1;jettySize=auto;html=1;fontColor=#FFFFFF;" parent="1" source="20" edge="1">
                    <mxGeometry relative="1" as="geometry">
                        <mxPoint x="520" y="80" as="targetPoint"/>
                        <Array as="points">
                            <mxPoint x="420" y="310"/>
                            <mxPoint x="420" y="80"/>
                        </Array>
                    </mxGeometry>
                </mxCell>
                <mxCell id="20" value="Novo input" style="rounded=0;whiteSpace=wrap;html=1;fontColor=#FFFFFF;" parent="1" vertex="1">
                    <mxGeometry x="440" y="280" width="120" height="60" as="geometry"/>
                </mxCell>
                <mxCell id="21" value="Obrigado por utilizar nosso programa" style="rounded=0;whiteSpace=wrap;html=1;fillColor=#cce5ff;strokeColor=#36393d;fontColor=#0D0D0D;" parent="1" vertex="1">
                    <mxGeometry x="620" y="210" width="120" height="60" as="geometry"/>
                </mxCell>
                <mxCell id="34" style="edgeStyle=orthogonalEdgeStyle;rounded=0;orthogonalLoop=1;jettySize=auto;html=1;entryX=1;entryY=0.75;entryDx=0;entryDy=0;fontColor=#FFFFFF;" parent="1" source="22" target="14" edge="1">
                    <mxGeometry relative="1" as="geometry">
                        <Array as="points">
                            <mxPoint x="590" y="290"/>
                            <mxPoint x="590" y="255"/>
                        </Array>
                    </mxGeometry>
                </mxCell>
                <mxCell id="22" value="Continuar saida anterior" style="rounded=0;whiteSpace=wrap;html=1;labelBackgroundColor=none;fontColor=#FFFFFF;" parent="1" vertex="1">
                    <mxGeometry x="620" y="280" width="120" height="60" as="geometry"/>
                </mxCell>
                <mxCell id="35" style="edgeStyle=orthogonalEdgeStyle;rounded=0;orthogonalLoop=1;jettySize=auto;html=1;entryX=0.008;entryY=0.633;entryDx=0;entryDy=0;entryPerimeter=0;fontColor=#FFFFFF;" parent="1" source="23" target="8" edge="1">
                    <mxGeometry relative="1" as="geometry">
                        <Array as="points">
                            <mxPoint x="800" y="380"/>
                            <mxPoint x="800" y="660"/>
                            <mxPoint x="40" y="660"/>
                            <mxPoint x="40" y="248"/>
                        </Array>
                    </mxGeometry>
                </mxCell>
                <mxCell id="23" value="Criar nova saida" style="rounded=0;whiteSpace=wrap;html=1;fontColor=#FFFFFF;" parent="1" vertex="1">
                    <mxGeometry x="620" y="350" width="120" height="60" as="geometry"/>
                </mxCell>
                <mxCell id="39" style="edgeStyle=orthogonalEdgeStyle;rounded=0;orthogonalLoop=1;jettySize=auto;html=1;fontColor=#FFFFFF;" parent="1" source="24" target="40" edge="1">
                    <mxGeometry relative="1" as="geometry">
                        <mxPoint x="680" y="550" as="targetPoint"/>
                    </mxGeometry>
                </mxCell>
                <mxCell id="24" value="Encerrar programa" style="rounded=0;whiteSpace=wrap;html=1;fontColor=#FAFAFA;" parent="1" vertex="1">
                    <mxGeometry x="620" y="420" width="120" height="60" as="geometry"/>
                </mxCell>
                <mxCell id="43" style="edgeStyle=orthogonalEdgeStyle;rounded=0;orthogonalLoop=1;jettySize=auto;html=1;fontColor=#FFFFFF;" parent="1" source="25" edge="1">
                    <mxGeometry relative="1" as="geometry">
                        <mxPoint x="420" y="310" as="targetPoint"/>
                        <Array as="points">
                            <mxPoint x="420" y="380"/>
                        </Array>
                    </mxGeometry>
                </mxCell>
                <mxCell id="25" value="Alterar input" style="rounded=0;whiteSpace=wrap;html=1;labelBackgroundColor=none;fontColor=#FAFAFA;" parent="1" vertex="1">
                    <mxGeometry x="440" y="350" width="120" height="60" as="geometry"/>
                </mxCell>
                <mxCell id="41" style="edgeStyle=orthogonalEdgeStyle;rounded=0;orthogonalLoop=1;jettySize=auto;html=1;entryX=0;entryY=0.5;entryDx=0;entryDy=0;fontColor=#FFFFFF;" parent="1" source="26" target="21" edge="1">
                    <mxGeometry relative="1" as="geometry">
                        <Array as="points">
                            <mxPoint x="600" y="520"/>
                            <mxPoint x="600" y="240"/>
                        </Array>
                    </mxGeometry>
                </mxCell>
                <mxCell id="26" value="Concluir arquivo" style="rounded=0;whiteSpace=wrap;html=1;labelBackgroundColor=none;fontColor=#FAFAFA;" parent="1" vertex="1">
                    <mxGeometry x="440" y="490" width="120" height="60" as="geometry"/>
                </mxCell>
                <mxCell id="33" style="edgeStyle=orthogonalEdgeStyle;rounded=0;orthogonalLoop=1;jettySize=auto;html=1;fontColor=#FFFFFF;" parent="1" source="28" target="32" edge="1">
                    <mxGeometry relative="1" as="geometry"/>
                </mxCell>
                <mxCell id="28" value="ID 1&lt;br&gt;NOME&lt;br&gt;VALOR&lt;br&gt;DATA" style="rounded=0;whiteSpace=wrap;html=1;" parent="1" vertex="1">
                    <mxGeometry x="530" y="40" width="120" height="60" as="geometry"/>
                </mxCell>
                <mxCell id="15" value="3 input" style="text;html=1;strokeColor=none;fillColor=none;align=center;verticalAlign=middle;whiteSpace=wrap;rounded=0;" parent="1" vertex="1">
                    <mxGeometry x="480" y="180" width="40" height="20" as="geometry"/>
                </mxCell>
                <mxCell id="38" style="edgeStyle=orthogonalEdgeStyle;rounded=0;orthogonalLoop=1;jettySize=auto;html=1;fontColor=#FFFFFF;" parent="1" source="32" edge="1">
                    <mxGeometry relative="1" as="geometry">
                        <mxPoint x="540" y="210" as="targetPoint"/>
                        <Array as="points">
                            <mxPoint x="770" y="150"/>
                            <mxPoint x="540" y="150"/>
                            <mxPoint x="540" y="210"/>
                        </Array>
                    </mxGeometry>
                </mxCell>
                <mxCell id="32" value="Dado criado com sucesso ID 1" style="rounded=0;whiteSpace=wrap;html=1;labelBackgroundColor=none;fontColor=#FFFFFF;" parent="1" vertex="1">
                    <mxGeometry x="710" y="40" width="120" height="60" as="geometry"/>
                </mxCell>
                <mxCell id="37" value="Abrir listagem" style="rounded=0;whiteSpace=wrap;html=1;labelBackgroundColor=none;fontColor=#FFFFFF;" parent="1" vertex="1">
                    <mxGeometry x="440" y="420" width="120" height="60" as="geometry"/>
                </mxCell>
                <mxCell id="40" value="Bye" style="rounded=0;whiteSpace=wrap;html=1;" parent="1" vertex="1">
                    <mxGeometry x="620" y="540" width="120" height="60" as="geometry"/>
                </mxCell>
            </root>
        </mxGraphModel>
    </diagram>
</mxfile>